<svg width="100" height="100" viewBox="0 0 100 100" fill="none" xmlns="http://www.w3.org/2000/svg">
<path fill-rule="evenodd" clip-rule="evenodd" d="M47.5984 78.5486C46.8623 78.507 46.1401 78.3403 45.4595 78.0347C41.7234 75.9236 39.4456 71.9514 39.4734 67.6597C39.4734 58.8403 47.6262 54.2014 47.7651 48.507C48.029 47.2014 49.3762 45.4514 50.5984 45.4514C51.4318 45.4514 52.2096 46.2431 52.529 48.507C52.6679 54.2014 61.0012 58.8403 61.0012 67.6597C60.8901 72.0208 58.4457 75.9792 54.5845 78.0347C53.9457 78.3264 53.2651 78.507 52.5707 78.5486C51.0707 78.5486 51.6401 76.9792 52.3623 76.3125C53.6956 75.0903 57.8623 71.4236 57.2096 69.7569C57.1401 69.5208 56.9179 69.3542 56.6679 69.3542C55.5151 69.3542 53.0707 72.2292 51.1957 73.0903C50.8762 73.2569 50.5151 73.3542 50.154 73.3542C49.654 73.3264 49.1818 73.1736 48.7512 72.9236C46.9318 72.0208 45.2095 69.3264 44.2929 69.3264C44.0845 69.3264 43.9317 69.4514 43.8067 69.7569C43.1401 71.4375 47.1818 75.0903 48.5151 76.3125C49.2234 76.9792 49.3206 78.5486 47.5845 78.5486M64.1818 48.9236C62.529 48.9236 61.0429 47.9097 60.4318 46.3681C59.8762 44.382 61.029 42.3264 63.0151 41.7708C63.0707 41.757 63.1262 41.7431 63.1818 41.7292C63.8345 41.5764 64.5151 41.4931 65.1818 41.4931C67.029 41.4931 68.5846 42.132 68.9318 43.1181C69.1401 45.6042 67.654 47.9236 65.3068 48.7847C64.9457 48.8681 64.5707 48.9236 64.1818 48.9236ZM36.0707 48.6597C35.6957 48.6597 35.3206 48.6042 34.9595 48.5208C32.5845 47.6736 31.0429 45.3681 31.1818 42.8542C31.529 41.8681 33.0707 41.2153 34.9318 41.2153C35.6123 41.2153 36.279 41.2986 36.9318 41.4653C38.9318 41.9236 40.1818 43.9236 39.7235 45.9236C39.7096 45.9792 39.6957 46.0486 39.6818 46.1042C39.1262 47.6181 37.6957 48.6458 36.0707 48.6597ZM24.7512 8.14586C23.4457 8.14586 29.6401 15.868 29.1123 29.0764C28.7373 29.1875 28.3623 29.2569 27.9734 29.2569C24.9873 29.2569 24.5707 24.8958 19.4318 22.8403C16.6679 21.7431 13.7095 21.1736 10.7373 21.1597C8.01509 21.1597 6.19568 21.7014 6.39012 22.2708C10.8068 35.4514 24.8901 36.6597 24.8484 41.3403C24.8484 43.6875 24.7512 44.0625 24.8484 48.6597C24.9179 52.0486 30.7373 65.7292 33.5429 67.7569C36.3484 69.7847 35.9873 77.132 41.779 80.632L41.9734 80.757C39.9596 82.5625 39.779 85.6458 41.5707 87.6736C41.6401 87.7569 41.7096 87.8264 41.7929 87.9097C41.8068 87.9097 41.8206 87.9097 41.8206 87.9097C42.0151 87.9097 42.6401 87.0903 43.3207 86.2709C44.0012 85.4514 44.7512 84.6319 45.1679 84.6319C45.3762 84.6319 45.5151 84.8264 45.529 85.3542C45.6957 88.3959 47.7651 91.007 50.6818 91.8681H50.7512C52.0984 91.7986 53.0984 85.3264 54.0568 85.3264H54.1123C54.7234 85.4792 56.8623 88.1458 57.904 88.1458C57.9457 88.1458 57.9734 88.1458 58.0151 88.1458C59.9457 86.1736 59.904 82.9931 57.9318 81.0625C57.8207 80.9514 57.6956 80.8403 57.5706 80.7431L57.7095 80.6458C63.5012 77.1319 63.0985 69.757 65.904 67.7708C68.6957 65.7708 75.029 52.0625 75.1124 48.6736C75.2096 44.2431 75.0429 43.3958 75.1401 41.3542C75.0984 36.6736 89.1817 35.7569 93.6123 22.5764C93.8206 21.9375 91.2512 21.0347 87.6957 21.0347C85.1124 21.0209 82.5429 21.5069 80.1401 22.4375C75.0012 24.4792 74.4457 29.0486 71.4457 29.1736C70.8901 15.8958 76.7373 8.17362 75.4179 8.17362C75.3901 8.17362 75.3623 8.17362 75.3345 8.17362C66.3762 10.2847 59.1679 16.9375 56.3623 25.7153H44.404H44.1262C41.0984 16.9653 33.8484 10.3542 24.8623 8.13196H24.7512" fill="black"/>
</svg>
