<svg width="100" height="100" viewBox="0 0 100 100" fill="none" xmlns="http://www.w3.org/2000/svg">
<path fill-rule="evenodd" clip-rule="evenodd" d="M49.5 87.8611C47.9444 87.8611 47.625 85.9028 47.4028 85.0833C47.4028 85.0833 51.4306 85.0833 52.9583 85.0833C52.375 86.5417 51.0833 87.5973 49.5278 87.875H49.5M37.7639 55.1111C37.2222 55.0972 36.6806 55.0139 36.1528 54.875C34.4583 54.625 33.2917 53.0417 33.5417 51.3611C33.5555 51.3056 33.5555 51.25 33.5694 51.1945C33.8333 50.3611 34.6389 49.9584 35.8056 49.9584C36.4861 49.9722 37.1806 50.0834 37.8333 50.2778C40.0833 50.8889 40.5555 52.375 40.1667 53.6389C39.8194 54.6111 38.8194 55.2361 37.7639 55.1111ZM62.4305 55.1111C61.375 55.2361 60.375 54.6111 60.0139 53.6111C59.6111 52.3611 60.0972 50.8611 62.3472 50.25C63 50.0556 63.6944 49.9445 64.375 49.9306C65.5278 49.9306 66.3472 50.3334 66.6111 51.1667C66.9583 52.8472 65.8889 54.4861 64.2083 54.8334C64.1528 54.8472 64.0972 54.8611 64.0417 54.8611C63.5139 55.0139 62.9722 55.0972 62.4305 55.1111ZM47.5833 83.9306C47.0278 83.9028 46.4722 83.75 45.9722 83.4861C42.1806 81.4722 39.6111 77.7083 39.125 73.4445C39.125 65.1389 47.7083 60.5139 47.7222 55.1528C47.75 45.6111 47.8611 42 44.0278 42C40.9305 42 41.9722 37.8195 49.8889 37.8195C58.0278 37.8195 59.5139 42 55.6805 42C51.8472 42 52.2361 45.5417 52.25 55.1528C52.25 60.5139 60.8611 65.1389 60.8611 73.4584C60.5139 77.6389 58.0972 81.3611 54.4167 83.375C53.8889 83.6389 53.3194 83.7917 52.7361 83.8195C51.2083 83.8195 51.3472 82.125 51.9722 81.4861C53.0972 80.3195 55.4861 79.5556 54.9167 77.9861C54.7639 77.5556 54.5556 77.3889 54.2778 77.3889C53.5694 77.3889 52.4583 78.6111 51.0555 79.3195C50.7778 79.4722 50.4861 79.5556 50.1667 79.5695C49.7361 79.5417 49.3333 79.4028 48.9722 79.1667C47.6389 78.4306 46.5417 77.3472 45.8333 77.3472C45.5417 77.3472 45.3194 77.5278 45.1528 77.9861C44.5972 79.5695 47.0139 80.3195 48.1528 81.4861C48.7917 82.1389 49.0972 83.9445 47.5833 83.9306ZM73.8056 8.13892H73.5C54.7639 8.30558 51.7778 28.2361 51.6111 34.0973C51.2917 34.0834 51.0278 34.0695 50.8194 34.0695C50.7083 34.0556 50.6111 34.0556 50.5 34.0695L48.375 33.9584C48.1667 27.9445 45.1111 8.29169 26.5 8.13892H26.1944C10.3472 8.13892 7.5 19.3472 7.5 24.5556C7.5 30.5695 10.5 38.0417 19.4722 38.0417C29.7083 38.0417 32.5694 29.875 27.9167 25.2917C25.375 26.2639 27.2083 29.3611 21.75 29.3611C17.0139 29.3611 18.1667 20.9167 24.7083 20.9167C31.0833 20.9167 34.4722 23.1667 34.4722 36.3056C33.8472 36.4861 33.2361 36.6945 32.6389 36.9445C26.0833 39.8889 19.9861 43.7639 14.5417 48.4584C9.97222 52.4028 10.75 60.875 12.6111 62.3333C12.7778 62.4583 12.9722 62.5278 13.1806 62.5278C15.1111 62.5278 18.9583 57.5833 23.8333 54.6111C24.4306 54.1806 25.125 53.9167 25.8611 53.8611C28.0417 53.8611 27.1667 58.3334 27.2222 61.875C28.25 66.3473 30.5833 70.4028 33.9028 73.5556C36.2639 75.4445 36.8056 82.3889 41.7222 85.7083C43.0556 89.0833 46.1528 91.4584 49.7778 91.8611H49.875C53.7083 91.5417 57.0694 89.1945 58.6944 85.7083C63.6111 82.3889 63.125 75.4445 65.5 73.5556C68.75 70.3889 70.9861 66.3195 71.9167 61.875C71.9861 58.5278 71.0833 53.6389 73.1528 53.6389C73.9444 53.7361 74.6944 54.0695 75.2917 54.6111C79.8472 57.9445 84.3056 62.5556 86.3611 62.5556C86.5972 62.5695 86.8194 62.4861 87 62.3472C89.0833 60.6528 89.1805 52.4028 84.6111 48.4722C79.1667 43.7778 73.0555 39.9028 66.4861 36.9584L65.5139 36.6111C65.4583 23.2084 68.8472 20.9306 75.2778 20.9306C81.8194 20.9306 82.9722 29.375 78.2361 29.375C72.7917 29.375 74.6111 26.2639 72.0833 25.3056C67.4305 29.875 70.2917 38.0417 80.5278 38.0417C89.4861 38.0417 92.5 30.5695 92.5 24.5695C92.5 19.3473 89.6528 8.1528 73.8194 8.1528" fill="black"/>
</svg>
