<svg width="100" height="100" viewBox="0 0 100 100" fill="none" xmlns="http://www.w3.org/2000/svg">
<path fill-rule="evenodd" clip-rule="evenodd" d="M57.4072 60.45C55.75 60.45 53.3214 62.1785 53.3214 63.6928C53.3214 65.2071 54.9071 65.8785 57.4643 65.8785C59.1214 65.8785 61.5643 65.2214 61.5643 63.6928C61.5643 62.1643 59.0786 60.45 57.4072 60.45ZM43.0215 60.3071C41.3643 60.3071 38.8786 62.0357 38.8786 63.5643C38.8786 65.0928 41.3215 65.75 42.9786 65.75C45.5357 65.75 47.1214 65.0928 47.1214 63.5643C47.1214 62.0357 44.6929 60.3071 43.0215 60.3071ZM49.2643 70.7214C28.4786 70.7214 27.7071 66.3928 28.45 64.45C29.5071 61.75 36.0072 52.7357 38.8643 52.7357C43.6786 52.7357 46.0357 56.7071 49.7215 56.75H49.75C51.7072 56.5214 53.5786 55.85 55.2357 54.7643C56.7357 53.75 58.4215 53.0785 60.2072 52.7785C60.3215 52.7785 60.4215 52.7785 60.5358 52.7928C63.3786 53.15 70.6643 61.8643 71.35 64.6643C71.8214 66.55 70.35 70.6785 49.25 70.6785M75.1786 6.92139H75.1357C67.5215 6.92139 54.9357 12.2928 54.8357 20.5642C54.9071 20.7071 55.4357 20.7642 56.2214 20.7642C57.0071 20.7642 57.9357 20.7214 59.0214 20.6785C60.1071 20.6357 61.3357 20.6071 62.5643 20.6071C64.8214 20.4785 67.0929 20.7785 69.2357 21.4785C71.7643 22.65 72.45 23.5214 72.2786 26.2214C72.3358 28.5928 70.4643 30.5785 68.0929 30.6357C68.0358 30.6357 67.9786 30.6357 67.9072 30.6357H67.8786C66.5929 30.6214 64.65 30.45 63.0072 30.45C61.3072 30.45 59.9215 30.6214 59.9072 31.3071C59.9072 37.4071 62.1643 40.1357 68.15 41.1214C68.9643 41.2642 69.8071 41.3357 70.6357 41.3357C71.9929 41.3214 73.3357 41.15 74.65 40.8357C75.6071 40.5643 76.5928 40.4071 77.5786 40.3357C78.0214 40.3214 78.4643 40.4214 78.8643 40.6071C79.4357 43.5785 79.4214 46.65 78.8214 49.6214L72.9786 51.9357C72.2786 52.3214 71.5358 52.6642 70.7786 52.95C68.2215 50.0071 64.6786 48.0786 60.8214 47.5214C55.6072 47.5214 57.4786 52.0071 50.0786 52.0071H49.8643C42.2072 51.9071 43.45 47.5357 38.25 47.5357C34.75 48.2643 31.6214 50.2071 29.4357 53.0357C28.6214 52.7357 27.8357 52.3643 27.0643 51.95L21.2214 49.6357C20.6357 46.6643 20.6072 43.6071 21.1786 40.6214C21.5786 40.4357 22.0214 40.35 22.4643 40.35C23.45 40.4214 24.4357 40.5785 25.3929 40.85C26.7072 41.1642 28.0643 41.3357 29.4215 41.35C30.25 41.35 31.0786 41.2785 31.9072 41.15C37.9072 40.15 40.1643 37.4357 40.15 31.35C40.1357 30.65 38.75 30.4928 37.05 30.4928C35.4072 30.4928 33.4786 30.65 32.1786 30.6643H32.15C29.7786 30.7071 27.8214 28.8071 27.7786 26.4214C27.7786 26.3643 27.7786 26.3071 27.7786 26.25C27.6214 23.55 28.3072 22.6928 30.8214 21.5071C32.9643 20.7928 35.2357 20.4928 37.4929 20.6214C38.7215 20.6214 39.9357 20.65 41.0357 20.6928C42.1357 20.7357 43.0929 20.7785 43.8357 20.7785C44.65 20.7785 45.1643 20.7357 45.2357 20.5785C45.1214 12.3214 32.5357 6.93569 24.9214 6.93569H24.8929C14.45 6.93569 1.70716 15.2928 1.45001 28.35C1.6643 32.1785 3.57859 35.7214 6.67859 37.9928C7.15002 42.6642 9.16429 47.0357 12.4214 50.4071L19.4072 55.3071C21.3072 56.3214 23.2786 57.2071 25.3072 57.95C24.75 58.7071 24.2214 59.4928 23.7214 60.2643C23.1929 60.2643 22.65 60.2643 22.1071 60.2643C20.3357 60.2643 18.4929 60.2928 16.5643 60.3357C12.6215 60.2928 8.67857 60.8643 4.92143 62.0643C2.27857 63.3643 2.39286 67.8214 3.36429 67.8214C3.42144 67.8214 3.4643 67.8071 3.50716 67.7928C7.25002 66.8785 11.1072 66.5214 14.95 66.7214C15.5929 66.7214 16.2357 66.7214 16.9072 66.7214C17.3929 66.7214 17.9071 66.7214 18.3643 66.7214C19.0214 66.7214 19.6643 66.7214 20.2786 66.7071C19.4643 68.4643 19.0643 70.3785 19.1072 72.3071C17.5215 72.4214 15.8214 72.55 13.7643 72.8071C10.3357 72.9928 6.96429 73.8928 3.89286 75.4357C1.95 77.7214 1.17858 80.7785 1.80716 83.7214C1.82144 83.7214 1.85002 83.7071 1.86431 83.7071C4.62145 81.7214 7.70717 80.2357 10.9786 79.3357C13.0643 79.05 17.7643 78.9643 22.1071 78.95C22.9214 80.1357 23.8214 81.25 24.7929 82.2928C24.4929 82.2928 24.1929 82.2928 23.8786 82.2928C19.8215 82.2928 14.5072 82.8071 12.1643 85.6928C11.05 87.5357 10.85 89.7928 11.6357 91.7928C11.7643 92.1214 11.8929 92.2785 12.05 92.2785C12.4643 92.2785 13.1071 91.1785 14.6929 89.9214C16.85 88.2643 21.5929 87.9357 26.85 87.9357C28.5072 87.9357 30.1929 87.9643 31.8786 88.0071C37.2643 91.3071 43.45 93.0642 49.7643 93.0785C55.5929 92.9071 61.2786 91.1643 66.2072 88.0357C68.4643 88.0071 70.8072 87.9357 73.0643 87.9357C78.3357 87.9357 83.0929 88.2643 85.2358 89.9214C86.8358 91.1643 87.4786 92.2785 87.8786 92.2785C88.0357 92.2785 88.1643 92.1357 88.2928 91.7928C89.0786 89.7928 88.8929 87.5357 87.7786 85.6928C85.4214 82.7928 80.1214 82.2785 76.0786 82.2785C75.1786 82.2785 74.35 82.3071 73.6215 82.3357C74.7072 81.2785 75.7215 80.15 76.6643 78.9643C81.3072 78.9643 86.7072 79.0357 88.9786 79.35C92.25 80.2643 95.35 81.7357 98.1071 83.7214C98.1214 83.7357 98.15 83.7357 98.1643 83.75C98.7786 80.8214 98.0071 77.7643 96.0643 75.4643C92.9928 73.9214 89.6358 73.0357 86.2072 72.8357C83.8929 72.5643 81.9643 72.4071 80.2215 72.2928L80.3929 71.6928C80.5072 70.0071 80.25 68.3214 79.6643 66.75C80.2786 66.75 80.9357 66.75 81.5928 66.75C82.0785 66.75 82.5643 66.75 83.0643 66.75H85.0214C88.8643 66.5357 92.7215 66.8928 96.4643 67.7928C96.5072 67.8214 96.5643 67.8214 96.6071 67.8214C97.5786 67.8214 97.7215 63.3643 95.05 62.0643C91.2786 60.8785 87.35 60.2928 83.4072 60.3357C81.3929 60.2928 79.4786 60.2643 77.6072 60.2643H76.5357C76.0214 59.4643 75.5357 58.65 74.95 57.8643C76.8786 57.15 78.7643 56.3071 80.5786 55.3214L87.5643 50.4357C90.8215 47.0643 92.8357 42.6928 93.2928 38.0214C96.4071 35.7642 98.3358 32.2214 98.5501 28.3785C98.3501 15.2785 85.6071 6.92139 75.1786 6.92139Z" fill="black"/>
</svg>
