<svg width="100" height="100" viewBox="0 0 100 100" fill="none" xmlns="http://www.w3.org/2000/svg">
<path fill-rule="evenodd" clip-rule="evenodd" d="M56.9781 60.9107H43.2143C43.0337 62.5219 45.7004 65.3274 48.0059 65.3274H52.4781C54.867 65.1468 56.7559 63.2719 56.9781 60.9107ZM38.2837 50.0288C38.2837 51.2446 39.2693 52.2302 40.4851 52.2302H40.7906C42.0064 52.2302 42.992 51.2446 42.992 50.0288C42.992 48.813 42.0064 47.8274 40.7906 47.8274H40.4851C39.2693 47.8274 38.2837 48.813 38.2837 50.0288ZM57.1378 50.0358C57.1417 51.2488 58.1261 52.2302 59.3392 52.2302H59.6517C60.8675 52.2302 61.8531 51.2446 61.8531 50.0288C61.8531 48.813 60.8675 47.8274 59.6517 47.8274H59.3392C58.1207 47.8274 57.134 48.8173 57.1378 50.0358ZM22.867 56.2302C20.5614 56.1885 18.6726 54.4246 18.4503 52.133C18.1031 49.883 19.0059 46.8691 22.3392 46.8552C22.7698 46.8552 23.1865 46.8969 23.6032 46.9802C23.3532 49.9802 23.8114 52.9941 24.9364 55.7857C24.492 56.0219 24.0198 56.1469 23.5198 56.1746C23.3115 56.2163 23.0892 56.2302 22.867 56.2302ZM80.9642 56.2302C80.742 56.2302 80.5337 56.2163 80.3253 56.1885C79.8253 56.1608 79.3532 56.0218 78.9087 55.7996C80.0198 53.008 80.4781 49.9941 80.242 46.9941C80.6587 46.9107 81.0754 46.8691 81.492 46.8691C84.8254 46.8691 85.7142 49.8691 85.3531 52.133C85.1309 54.4107 83.242 56.1746 80.9642 56.2302ZM29.3809 47.5357C38.4642 47.5357 57.7837 41.1468 61.5059 33.2302C61.6726 41.6885 68.0893 46.9108 75.8531 48.133C76.5615 51.0358 74.4364 68.1607 58.617 72.9246C56.0753 73.7996 53.3948 74.2163 50.7142 74.1607C46.3809 74.3135 42.0892 73.2719 38.3114 71.1469C33.3114 67.7719 28.6726 60.7996 28.9364 47.5357H29.3809ZM25.8114 34.7302C24.2698 33.7302 23.7004 31.758 24.4643 30.0913C27.1726 25.9246 40.0753 18.3691 51.2559 18.3135H51.3809C61.2698 18.3135 72.7559 24.6608 76.2976 30.0774C77.1309 31.7024 76.617 33.6885 75.117 34.7302C68.492 29.1468 60.1726 25.9941 51.5198 25.7858C42.7976 25.7719 31.0614 29.3274 25.8114 34.7302ZM50.242 8.14685C28.242 7.92463 10.2142 25.5774 9.99197 47.5774C9.99197 47.9802 9.99197 48.3691 9.99197 48.7718C9.99197 53.8135 14.7837 66.0635 14.8254 73.4246C14.8531 86.3552 7.95036 91.8552 11.0893 91.8552H11.1587C23.5337 91.7996 38.367 84.8691 38.617 76.8135C42.5754 78.0219 46.6865 78.7024 50.8253 78.8135C54.5476 78.758 58.2281 78.1469 61.7698 76.9941C61.7698 86.1607 75.8531 91.7024 88.7559 91.8552H88.8253C92.8809 91.8552 85.2003 86.4385 85.2559 73.508C85.2837 66.0635 89.8532 53.8274 89.9365 48.7858C89.9643 29.258 75.2976 8.14685 50.242 8.14685Z" fill="black"/>
</svg>
