<svg width="100" height="100" viewBox="0 0 100 100" fill="none" xmlns="http://www.w3.org/2000/svg">
<path fill-rule="evenodd" clip-rule="evenodd" d="M76.1837 64.8169V64.507C75.9583 57.7887 73.7612 51.2817 69.8457 45.8028C71.0428 42.5352 74.0147 40.2394 77.4794 39.9296C79.3668 40.0141 81.1978 40.6478 82.7189 41.7605C86.057 44.4788 86.6626 49.338 84.1274 52.8028C82.3527 55.8451 80.3809 58.7605 78.226 61.5352C77.3668 62.507 76.6625 63.6056 76.1555 64.8028M41.3386 74.6338C32.9443 74.6338 28.226 69.5211 28.226 64.0282C27.6203 60.1127 29.4372 56.2254 32.8315 54.169C37.4653 51.9014 39.395 46.3099 37.1274 41.662C36.6344 40.662 35.9724 39.7605 35.1696 38.9859C35.5921 38.9577 36.0147 38.9436 36.4373 38.9436C46.8457 38.9436 57.1696 49.676 57.0851 60.9718C57.0006 69.662 52.2118 74.5211 41.5639 74.6338H41.3386ZM68.0147 7.54929H67.9302C67.2964 7.54929 61.071 7.57744 53.1837 7.57744C39.6485 7.57744 21.2259 7.54929 17.7893 7.54929C12.9865 7.57745 12.2682 14.338 16.6767 14.4507C16.8738 14.4507 17.0851 14.4366 17.2823 14.4366C23.24 14.4084 28.1273 19.169 28.2823 25.1267C28.1837 30.9014 18.2401 37.9296 13.2682 44.3944C8.67667 50.3803 4.38084 55.8732 4.40901 64.0704C4.47943 78.8873 19.9161 92.3098 42.7189 92.4507C59.4513 92.3521 71.2682 83.7042 74.9725 72.4084C75.6908 74.2957 77.888 79 82.0288 79C82.5077 79 82.9725 78.9437 83.4372 78.8169C85.8316 77.7042 81.1555 72.9437 85.8597 66.2676C89.0569 62.0845 91.8034 57.5915 94.071 52.8451C97.5358 45.493 94.902 36.7183 87.9583 32.4929C85.2963 30.5915 82.0851 29.5915 78.8175 29.6338C73.0992 29.9859 67.6063 31.9296 62.9302 35.2394L62.7893 36.2676C58.5499 30.9577 57.0006 29.2394 57.071 25.0282C57.5921 19.3099 62.2119 14.845 67.9443 14.5211C68.1133 14.5211 68.2682 14.5211 68.4513 14.5352C73.4513 14.5352 71.8175 7.57744 68.0428 7.57744" fill="black"/>
</svg>
