<svg width="100" height="100" viewBox="0 0 100 100" fill="none" xmlns="http://www.w3.org/2000/svg">
<path fill-rule="evenodd" clip-rule="evenodd" d="M66.0495 57.358L75.9754 36.2593L86.1112 57.358H66.0495ZM14.0988 57.358L26.7408 36.2593L37.7902 57.3704H14.0988M52.0988 12.7901C50.5927 12.7901 47.9754 16.3333 47.9754 16.3333V23.7531C39.5927 23.8272 34.926 27.1358 27.4322 28.0741C26.4816 28.1729 25.5309 28.2222 24.568 28.2099C21.0001 28.1728 17.4445 27.9383 13.9013 27.5185C13.8766 33.284 21.3457 34.0494 21.3457 34.0494C22.0494 34.1358 22.7532 34.1852 23.4569 34.1852C20.8149 38.4198 11.7655 53.0123 10.0495 57.2222C9.85192 60.0123 16.8149 65.1358 25.4816 65.1358C35.4445 65.1358 42.3334 58.9383 41.7902 57.2346C39.926 52.6543 30.4322 35.7654 29.0371 33.321L29.284 33.2469C34.4445 32.0371 41.7161 31.321 47.0124 31.1111C47.3457 31.1111 47.6544 31.1111 47.963 31.1358C48.0001 36.3334 47.9754 72.9012 47.963 76.0247C47.9507 79.1482 37.4445 82.1976 28.0371 83.9383C28.3211 84.679 29.6173 87.2099 29.6173 87.2099H74.2717C74.2717 87.2099 75.568 84.6667 75.8519 83.9383C66.4445 82.1976 55.9136 79.2346 55.926 76.0864C55.9383 73.4815 55.9383 47.9506 55.9383 31.1235H56.5062C62.4075 31.284 66.284 31.8766 72.0865 32.8889L72.4322 33C72.3951 33.0741 63.7902 52.2839 61.7778 57.2222C61.5803 60 67.4075 65.2346 76.0865 65.2346C86.0494 65.2346 90.4322 58.9136 89.9137 57.2099C88.1976 52.9506 81.1853 38.1358 79.2346 34.0618L79.7902 34.037C83.1359 33.5802 85.6544 30.7655 85.7408 27.3951C80.642 27.8519 77.4816 28.1728 75.3705 28.1728C74.8149 28.1728 74.2717 28.1482 73.7161 28.0864C66.2593 27.1358 64.2099 23.8766 55.926 23.7655V16.321C55.926 16.3087 53.4692 12.7901 52.0988 12.7901Z" fill="black"/>
</svg>
