<svg width="100" height="100" viewBox="0 0 100 100" fill="none" xmlns="http://www.w3.org/2000/svg">
<path fill-rule="evenodd" clip-rule="evenodd" d="M27.3087 66.2291C25.8087 66.3264 24.6837 67.6319 24.7809 69.1181C24.8781 70.6181 26.1837 71.7431 27.6698 71.6458C29.0865 71.5486 30.1976 70.368 30.1976 68.9375C30.1421 67.3958 28.8504 66.1875 27.3087 66.2291ZM29.3781 79.1736C27.7115 79.0625 26.1143 78.4653 24.7809 77.4514C19.142 73.4514 14.3365 67.3125 14.2948 62.7847C14.2948 61.3403 17.8087 59.8681 20.3087 59.7431C25.4337 59.4931 28.7531 59.3958 30.9337 59.3958C35.7115 59.3958 35.0587 59.868 35.892 60.2569C37.1143 60.8403 38.1976 61.3681 38.2254 62.6181C38.3087 66.8403 37.5309 75.2569 30.8504 78.8403C30.4059 79.0625 29.892 79.1736 29.3781 79.1736ZM86.1976 42.4514C85.6282 42.4514 86.4059 45.5486 85.1976 47.9236C84.2948 49.6875 82.8504 49.7014 82.3226 52.9514C81.6142 49.1875 78.3782 46.4097 74.5309 46.2986C74.2115 46.2986 73.8781 46.3403 73.5587 46.4097C72.0726 46.7708 77.0171 47.5347 74.4893 53.8125C72.8088 57.9653 71.5865 61.6597 80.0865 63.7986C79.892 65.3125 74.156 69.7569 67.3643 69.7569C65.8782 69.7708 64.4059 69.5486 62.9893 69.1181C59.0587 67.0903 55.3226 64.7014 51.8365 62.007C52.6282 61.0208 53.6976 60.3264 54.9059 59.993C55.7254 59.6736 56.6004 59.5069 57.4754 59.5069C57.7254 59.5069 57.9337 59.5208 58.1143 59.5347C58.2948 59.5486 58.4754 59.5486 58.6281 59.5486C59.0309 59.5486 59.2532 59.4653 59.2671 59.0486C59.3504 57.1875 58.892 52.6319 49.267 51.8819C48.4893 51.8125 47.5726 51.7708 46.5587 51.7708C42.1281 51.5347 37.781 52.9097 34.281 55.6319C33.2671 55.5902 32.2115 55.5764 31.1421 55.5764C22.4754 55.5764 12.6421 56.7708 8.40595 59.3958C7.58651 59.9792 7.16983 60.993 7.35038 61.993C8.85038 73.0625 24.7393 91.8542 56.0032 91.8542C57.2254 91.8542 58.4754 91.8264 59.7393 91.7708C60.3643 90.3958 56.3226 84.4236 58.017 83.1597C63.0448 86.1458 68.767 87.7708 74.6143 87.8819H74.6976C74.4754 84.0902 69.4199 81.1736 71.1837 79.4097C72.8226 77.7986 84.5587 73.9375 90.8504 62.8958C95.4198 54.9097 90.5726 42.4792 86.1837 42.4653M72.4476 28.4375C71.0309 28.5486 69.9615 29.7708 70.0726 31.2014C70.1837 32.618 71.406 33.6875 72.8365 33.5764C74.1837 33.4792 75.2254 32.3542 75.2254 31.0208C75.1559 29.5347 73.9198 28.3958 72.4476 28.4375ZM80.0449 38.3125C64.7115 38.3125 64.8365 37.8403 63.6282 37.2708C62.4199 36.7014 61.3226 36.1597 61.2949 34.9236C61.0171 28.5903 64.156 22.6041 69.5171 19.2291C70.156 18.9236 70.8504 18.7847 71.5587 18.8125C73.1976 18.8264 74.7948 19.3125 76.1698 20.2152C81.7948 24.2152 86.6142 30.4375 86.6559 34.9791C86.642 36.4097 82.5588 38.2986 80.0449 38.3125ZM45.4198 8.14584C44.0865 8.14584 42.7115 8.17359 41.3226 8.24303C40.6976 9.63192 43.6559 14.0764 42.767 15.9375C37.4337 13.243 31.5032 11.9375 25.531 12.1319C24.6421 12.3819 27.8643 14.8958 29.1838 18.6319C27.5449 20.243 15.392 24.1041 9.08649 35.1458C4.51705 43.1319 9.79479 55.5625 14.1698 55.5625C14.7531 55.5625 13.9615 52.4653 15.1837 50.0903C16.0865 48.3125 17.531 47.9097 18.0587 44.6597C18.781 48.5347 22.031 51.4236 25.9615 51.7014C26.2532 51.7014 26.531 51.6736 26.8087 51.6041C28.2948 51.243 23.3642 50.4792 25.892 44.2014C27.5726 40.0625 28.0865 34.7986 19.5865 32.6458C19.7532 31.2153 25.3642 28.1042 31.8781 28.1042C33.7392 28.0903 35.6004 28.368 37.3782 28.9097C41.3226 30.8958 45.0865 33.2153 48.642 35.8264C48.4198 36.3125 47.7115 37.1736 45.4615 38.0347C44.3643 38.3958 43.1976 38.5625 42.031 38.5208C41.6282 38.5208 41.2393 38.5208 40.8782 38.493C40.5032 38.4653 40.1698 38.4792 39.8642 38.4792C38.9892 38.4792 38.4198 38.5486 38.4059 38.9652C38.3226 40.8264 43.0031 44.9931 52.642 45.7292C53.017 45.7569 53.4059 45.7708 53.7948 45.7708C58.2809 45.5347 62.6837 44.368 66.7115 42.368L65.281 41.8125L65.6421 41.8403C67.2254 41.9097 68.8782 41.9375 70.5587 41.9375C78.7393 41.9375 87.3921 41.1042 91.406 38.6042C92.2254 38.0208 92.6282 37.007 92.4476 36.007C90.9476 25.0347 76.3226 8.14584 45.4198 8.14584Z" fill="black"/>
</svg>
