<svg width="100" height="100" viewBox="0 0 100 100" fill="none" xmlns="http://www.w3.org/2000/svg">
<path fill-rule="evenodd" clip-rule="evenodd" d="M32.8699 71.4014L32.8046 71.345L67.952 36.0775C76.0018 45.7394 80.2419 58.4155 79.7853 71.4014H32.8699ZM29.1125 67.5L28.982 20.4296H29.4126C29.7126 20.4296 30.0127 20.4296 30.3389 20.4296C42.5113 20.1197 54.4228 24.3028 64.0903 32.2746L29.1125 67.5ZM13.835 7.55634C11.2257 10.8803 11.604 15.8521 14.6961 18.669C14.9309 18.8803 15.1788 19.0775 15.4267 19.2606C18.2969 20.2746 21.3106 20.6972 24.3244 20.4859H24.8854L24.9115 67.3028H20.9453L7.78137 78.5V79.6267H20.6844V92.4436H22.0674L33.0395 79.5L33.1047 75.5281H79.6809C79.2895 78.7112 79.6548 81.9366 80.7377 84.9225C82.0684 87.2183 84.4559 88.5422 86.9478 88.3591C88.7482 88.3591 90.5226 87.838 92.0882 86.8521C89.4006 84.007 88.0176 80.0352 88.2916 75.9789C88.2916 73.0352 88.5004 68.3732 88.122 62.3592C86.8696 50.1338 82.0945 38.6408 74.4884 29.4718L79.3808 24.5563L86.3216 31.3169L92.2186 7.78169L68.7479 14.2042L75.4799 20.7676L70.6396 25.669C61.1026 17.5704 49.4912 12.8239 37.3709 12.0493C35.2965 11.9085 33.5874 11.8662 32.1132 11.8662C30.7824 11.8662 29.6343 11.8943 28.5776 11.9366C27.5208 11.9789 26.5684 12.007 25.5769 12.007C25.1724 12.007 24.7549 12.007 24.3374 11.9788C20.5148 11.7817 16.8096 10.2183 13.835 7.55634Z" fill="black"/>
</svg>
