<svg width="100" height="100" viewBox="0 0 100 100" fill="none" xmlns="http://www.w3.org/2000/svg">
<path fill-rule="evenodd" clip-rule="evenodd" d="M55.2965 33.5888C53.9996 33.5888 52.9642 33.1583 52.9642 31.7277C52.9642 30.3111 54.0223 29.6166 55.2965 29.6166C56.5708 29.6166 57.6288 30.1583 57.6288 31.6027C57.6288 33.0333 56.5708 33.5749 55.2965 33.5888ZM44.1698 33.4499C42.8614 33.4499 41.883 33.0472 41.883 31.6027C41.883 30.1583 42.8614 29.4777 44.1698 29.4777C45.4781 29.4777 46.5248 30.1583 46.5248 31.6027C46.5248 33.0472 45.4781 33.4499 44.1698 33.4499ZM27.639 8.14438C27.0246 8.14438 26.4899 10.3944 25.7504 12.6583C25.0109 14.9083 24.0325 17.1722 22.5307 17.1722H22.4511C18.8332 17.1722 17.4224 8.65826 15.4769 8.6166C13.4518 8.6166 11.6088 22.7138 14.0093 28.1722C15.6817 31.8666 18.799 34.2416 22.2577 34.436C24.6582 36.3527 27.4797 37.3666 30.3467 37.3527C30.8587 37.3527 31.3593 37.3249 31.8485 37.2694C33.7598 36.9638 35.6029 36.1583 37.2412 34.9083C36.9113 36.561 36.752 38.2555 36.7634 39.9499C33.6802 40.5888 32.8042 41.8805 30.1874 42.2832C29.3683 42.4082 28.5378 42.4777 27.7186 42.4638C27.0019 42.4638 26.342 42.4221 25.7732 42.3805C25.2043 42.3388 24.7151 42.2972 24.351 42.2972C23.8391 42.2972 23.5546 42.3666 23.5546 42.6166C23.657 44.4916 24.8744 45.9083 27.9689 46.1583C28.3557 46.186 28.7653 46.1999 29.209 46.1999C31.803 46.1305 34.3856 45.8666 36.9568 45.4361C37.0023 46.2694 37.0592 47.1444 37.1502 48.0472C34.1353 48.6861 31.8371 49.7833 29.3342 50.186C28.6402 50.2971 27.9348 50.3527 27.2294 50.3527C26.6492 50.3527 26.0576 50.311 25.4773 50.2416C24.9995 50.186 24.6468 50.1305 24.4079 50.1305C24.169 50.1305 23.9983 50.1999 24.0097 50.4499C24.1121 52.3249 25.045 53.9916 28.1509 54.2555C28.515 54.2833 28.9132 54.2972 29.3342 54.2972C32.2694 54.1999 35.1933 53.9083 38.1058 53.4361C38.413 54.5611 38.7885 55.6444 39.2435 56.6999C36.5358 57.4638 34.3742 58.8249 32.0419 59.1999C31.2455 59.3249 30.4491 59.3944 29.6527 59.4083C29.1863 59.4083 28.8108 59.3805 28.4923 59.3527C28.1737 59.3249 27.9462 59.311 27.7641 59.311C27.457 59.311 27.3318 59.3805 27.3432 59.6722C27.457 61.5472 29.2431 62.7277 32.3491 62.9777C32.6449 63.0055 32.9634 63.0194 33.2934 63.0194C36.0466 62.8805 38.7771 62.4638 41.4734 61.7833L42.1333 61.6722C43.5327 63.4916 45.0913 65.1027 46.7865 66.5055C51.2691 70.2555 54.7732 72.3249 52.9187 78.9916C51.9517 82.4777 48.8344 84.0749 45.2392 84.0749C44.1129 84.0749 42.9866 83.9222 41.8944 83.6444C43.6578 77.0611 42.2926 74.7833 37.5598 74.7833C37.3322 74.7833 37.116 74.7833 36.8771 74.7971H36.8089C34.0442 74.7971 35.1023 67.9083 34.67 67.1444C34.579 67.1027 34.4766 67.0888 34.3742 67.0888C30.6766 68.4083 28.0144 72.3527 27.6617 77.0472C27.6617 81.3805 29.7324 85.325 32.9521 87.1583C36.0011 90.2555 39.8465 91.936 43.8171 91.8527C49.1188 91.8666 54.2271 89.4777 58.1749 85.1583C67.14 73.2972 61.7701 66.1305 60.0863 61.6583L60.6665 61.7555C63.8975 62.5333 67.1742 63.0471 70.4735 63.2555C70.7693 63.2555 71.0423 63.2555 71.2926 63.2277C74.3872 62.9638 75.377 61.5333 75.4908 59.6583C75.4908 59.3666 75.2973 59.2971 74.8877 59.2971C74.6488 59.2971 74.3303 59.3111 73.9549 59.3388C73.5794 59.3666 73.1357 59.3944 72.6237 59.3944C71.7818 59.3944 70.9399 59.3249 70.1094 59.186C67.3903 58.7416 64.967 56.936 61.5539 56.3249L61.1898 56.2972C61.7018 55.2972 62.1455 54.2555 62.5323 53.1722L63.3742 53.3249C66.5029 53.8527 69.6543 54.1722 72.8172 54.2972C73.2495 54.2972 73.6363 54.2972 74.0003 54.2555C77.1063 53.9916 79.1769 52.3249 79.2793 50.4499C79.2793 50.2138 79.0631 50.1305 78.6649 50.1305C78.3009 50.1305 77.8003 50.186 77.1859 50.2416C76.5716 50.2972 75.8434 50.3666 75.047 50.3666C74.2962 50.3666 73.5567 50.311 72.8172 50.1999C70.1777 49.7833 67.1514 48.5888 63.8748 47.9638C64.0227 47.1166 64.1592 46.2416 64.2503 45.2972C67.3562 45.8666 70.4962 46.2138 73.6363 46.3388C74.0345 46.3388 74.4099 46.3388 74.7512 46.2972C77.8458 46.0333 78.938 44.4916 79.0404 42.6166C79.0404 42.3527 78.8811 42.2972 78.517 42.2972C78.2553 42.2972 77.914 42.325 77.459 42.3666C77.0153 42.4083 76.4806 42.4499 75.8776 42.4499C75.1039 42.4499 74.3417 42.3944 73.568 42.2694C70.8489 41.8388 68.4256 40.4499 65.0125 39.8527L64.3299 39.7833C64.2502 37.7694 63.9886 35.7694 63.5676 33.8249C65.5472 35.6305 67.8568 36.7972 70.2915 37.2416C70.7807 37.2972 71.2812 37.3249 71.7705 37.3249C74.8309 37.3388 77.8344 36.1722 80.3373 34.0194C82.5217 32.9638 84.3079 30.9777 85.3774 28.4361C88.6995 21.5472 86.5378 8.75549 85.0475 8.75549C83.1134 8.78327 80.3829 17.0194 77.7206 17.0194C75.0015 17.0055 76.0596 8.43606 74.6033 8.42217C72.7716 8.42217 67.561 18.6027 72.3052 28.7416C71.9525 29.8249 71.031 32.0194 69.5861 32.0194C69.5064 32.0194 69.4268 32.0194 69.3358 32.0055C65.843 30.9221 62.6802 28.6166 60.2342 25.3805C60.1659 25.2972 60.0863 25.2416 59.9839 25.2138C59.8473 25.2138 59.8132 25.436 59.8474 25.811L59.5857 25.5472C64.3299 21.2555 65.5245 16.9777 63.5904 16.8805C63.5449 16.8805 63.4994 16.8805 63.4538 16.8805C60.6779 16.8805 60.2911 20.9777 57.1055 21.0333C55.7516 21.0333 54.3864 16.9083 52.4864 16.9083H50.1086C48.22 16.9083 46.9686 21.0333 45.6147 21.0333C42.4291 20.9777 41.2687 16.7555 39.4483 16.7555H39.3573C37.4687 17.3388 39.0729 22.0749 42.2584 25.1722L42.0992 25.3111L41.9513 25.3805C39.4825 28.6166 36.3083 30.9222 32.7928 31.9916C32.7131 32.0055 32.6335 32.0194 32.5538 32.0194C30.9724 32.0194 30.0168 29.3666 29.7437 28.4777C32.4628 21.8944 31.7347 13.9638 27.8779 8.28328C27.821 8.19994 27.73 8.15827 27.639 8.14438Z" fill="black"/>
</svg>
