<svg width="100" height="100" viewBox="0 0 100 100" fill="none" xmlns="http://www.w3.org/2000/svg">
<path fill-rule="evenodd" clip-rule="evenodd" d="M46.9123 72.4943H46.8077C45.5518 72.5408 44.7611 73.3082 45.5867 74.7733C46.1797 75.7152 47.203 76.3082 48.3076 76.3315C48.5402 76.3431 48.7727 76.2966 48.9937 76.1919C49.8309 75.7617 49.3193 72.4826 46.9123 72.4943ZM53.2495 72.4826C50.8425 72.4826 50.3425 75.7617 51.1681 76.1919C51.3774 76.285 51.61 76.3315 51.8542 76.3315C52.9704 76.2966 53.9937 75.7152 54.5751 74.7733C55.4007 73.2966 54.5983 72.5408 53.3541 72.4943L53.2495 72.4826ZM39.0984 56.3315C37.9821 56.4012 36.9123 55.8315 36.3425 54.8663C35.0751 52.6338 35.7611 51.2036 37.6914 51.1222H37.9123C41.61 51.1222 42.61 55.1687 41.3193 55.8082C40.6216 56.1571 39.8658 56.3315 39.0984 56.3315ZM61.0518 56.3315C60.2844 56.3198 59.5286 56.1454 58.8425 55.8198C57.5518 55.1687 58.5518 51.1338 62.2495 51.1338H62.4705C64.4007 51.2036 65.0867 52.6338 63.8193 54.878C63.2495 55.8431 62.1914 56.4012 61.0518 56.3315ZM48.889 80.7152C43.4937 80.7152 40.4007 79.0989 40.4239 76.6105C40.4588 70.064 46.203 62.7966 46.1681 55.0873C46.11 42.6338 34.9588 42.378 36.9239 40.0291C41.8076 39.3664 46.7262 39.064 51.6565 39.1338C55.5518 38.9245 59.4472 39.285 63.2263 40.2152C64.017 41.3547 54.1216 42.6454 54.0402 55.1919C53.9821 64.6222 60.1332 70.0989 60.1332 76.7733C60.1332 78.785 55.8076 80.4594 50.0867 80.692C49.6914 80.7036 49.2844 80.7036 48.889 80.7152ZM93.1681 14.9594C90.7379 14.9594 84.5635 25.7617 79.8309 26.4943C75.7728 26.9245 71.703 27.1222 67.6332 27.0873V25.5408C67.6216 24.0524 66.4007 22.8547 64.9123 22.8664C64.9007 22.8664 64.9007 22.8664 64.889 22.8664H34.9472C33.4588 22.8431 32.2379 24.0408 32.2146 25.5291V25.5408V27.0873C27.889 27.1338 23.5751 26.9361 19.2728 26.4943C14.5518 25.7617 8.93556 15.064 6.74951 15.064C6.15649 15.0757 5.81927 15.8664 5.81927 17.8547C5.81927 29.1454 12.4007 36.6919 20.4472 37.7501C10.517 41.0292 9.43555 52.064 11.2844 52.064H11.3076C14.8774 51.1803 18.3658 49.9943 21.7379 48.5408C22.6914 48.1919 23.703 48.0059 24.7146 47.9826C25.0983 47.9826 25.4937 48.0175 25.8774 48.0873C28.2146 55.6687 31.6797 62.8547 36.1449 69.4129C38.5983 73.3082 34.61 77.3547 37.8077 81.0408C41.0635 84.785 46.6449 85.0408 49.9821 85.0408H50.1565C53.5169 85.0408 58.8309 85.064 62.3542 81.4129C65.3193 78.3199 62.1332 73.3315 63.703 70.7501C67.796 63.6454 70.8193 55.971 72.6798 47.9943C72.9356 47.971 73.203 47.9478 73.4588 47.9594C74.5635 47.971 75.6565 48.1687 76.6914 48.5408C80.5518 49.8547 82.3774 52.064 84.1565 52.064H84.1797C86.0402 52.064 85.796 41.6571 77.1216 37.9012C85.8774 37.6571 94.1797 29.7152 94.1797 17.7268C94.203 15.7385 93.8193 14.9478 93.1681 14.9594Z" fill="black"/>
</svg>
