<svg width="100" height="100" viewBox="0 0 100 100" fill="none" xmlns="http://www.w3.org/2000/svg">
<path fill-rule="evenodd" clip-rule="evenodd" d="M92.1908 30.4708C92.1645 27.6024 84.2961 15.2471 66.7566 13.1419C66.9803 12.3524 67.3487 11.0761 67.4408 10.8261C65.4935 9.73397 57.9013 10.4576 53.7566 13.4445L53.5987 13.4708C49.7434 11.234 45.3224 10.1682 40.875 10.405C40.9935 10.7734 41.4803 13.734 41.4803 13.734C41.4803 13.734 19.9935 10.7734 7.79608 34.2998C8.19082 35.2603 14.5066 33.4708 18.0592 33.2997C11.954 41.6945 6.61184 55.4182 21.7434 73.6682C22.8618 71.9445 24.204 70.3787 25.7435 69.0234C34.1908 78.2208 45.1513 82.155 52.0329 89.655C53.7171 88.3261 53.9802 84.1813 59.5592 81.7734C63.125 80.2076 66.5855 78.4313 69.9276 76.4445C74.046 74.234 77.0066 70.3392 80.1119 62.734C81.7566 63.9182 83.2697 65.2603 84.6513 66.734C89.0066 62.7208 91.6645 57.2076 92.1119 51.3129C92.0066 43.5366 88.9145 36.1024 83.4803 30.5366C85.2435 30.4576 89.2171 30.405 92.2039 30.4576L92.1908 30.4708ZM29.3487 19.3129C31.8487 16.4971 36.1514 16.2208 38.9803 18.7208C39.625 19.3129 40.1382 20.0234 40.5066 20.8261C36.1645 22.4576 32.4935 25.5103 30.0856 29.484C27.9408 27.9708 23.8356 24.8655 29.3487 19.3129ZM59.8619 68.484C59.8487 68.9182 59.4803 69.2603 59.0461 69.2471C59.0461 69.2471 59.0461 69.2471 59.0329 69.2471H44.8882C44.454 69.2603 44.0856 68.9182 44.0724 68.484C44.0724 68.484 44.0724 68.484 44.0724 68.4708V64.5103L50.6908 61.9182C51.5066 61.6287 52.4014 61.6287 53.2172 61.9182L59.8487 64.5103L59.8619 68.484ZM65.0461 48.2471C65.5593 52.155 64.6513 56.1155 62.4803 59.405L54.5066 56.6945V50.9182C54.5066 50.1024 57.7434 48.1155 58.6908 47.2076C59.875 46.3787 60.4277 44.905 60.0987 43.4971C59.8224 41.3129 58.4145 39.2734 61.1119 39.3261C62.4145 39.1024 63.4145 38.0761 63.5987 36.7734C63.6645 34.5761 62.5066 33.2603 59.7961 33.2208C57.2566 32.905 54.9539 34.7076 54.6382 37.2471C54.625 37.3524 54.6119 37.4445 54.6119 37.5498C54.6777 38.4708 55.6382 44.0892 55.6645 44.8261C55.6908 45.5629 54.3882 46.9445 53.2434 47.9445H50.704C49.5461 46.8655 48.2697 45.4708 48.2303 44.5892C48.1908 43.8787 49.2566 38.4576 49.3224 37.5498C49.125 34.984 46.875 33.0629 44.3224 33.2734C44.2829 33.2734 44.2434 33.2866 44.204 33.2866C41.5592 33.3261 39.9671 34.734 40.0461 36.4182C40.1119 38.1024 41.5329 39.4182 43.2171 39.3655C46.0461 39.2866 44.204 41.3524 43.9277 43.5366C43.6514 45.7208 43.5855 46.3524 44.5329 47.2471C45.4934 48.1419 49.3224 50.0629 49.3487 50.8919C49.3619 51.655 49.3487 56.7734 49.3487 56.7734L42.7566 59.4182C40.1908 56.2603 38.7961 52.3129 38.8224 48.2603C31.5461 41.234 30.3619 39.8918 30.9671 37.6418C31.5724 35.3918 35.1382 23.2603 51.5329 23.3261H52.454C68.8487 23.2603 72.4014 35.405 73.0198 37.6418C73.6382 39.8787 72.3618 41.2208 65.0855 48.2603L65.0461 48.2471ZM76.0066 28.1682C75.4145 28.7208 74.7435 29.155 74.0066 29.484C71.6645 25.5629 68.0461 22.5629 63.7697 20.9839C64.3487 20.1287 65.0461 19.3655 65.8619 18.7208C68.704 16.2866 72.9671 16.5498 75.4935 19.3129C78.0461 21.1813 78.6119 24.7734 76.7303 27.3392C76.5198 27.6287 76.2829 27.905 76.0066 28.1682Z" fill="black"/>
</svg>
