<svg width="188" height="40" viewBox="0 0 188 40" fill="none" xmlns="http://www.w3.org/2000/svg">
<path d="M29.1655 40L27.3648 32.2739C38.2097 28.6796 42.6926 23.4628 42.1342 13.8847C41.5757 4.30669 31.4713 -0.572491 20.7335 0.0535418C9.99572 0.679575 -0.647793 6.76836 0.0308141 18.4079C1.07935 36.3925 23.2624 39.6312 29.1655 40Z" fill="#5F27E3"/>
<path d="M174.266 38.9223C172.118 38.9223 170.002 38.5256 167.92 37.7324C165.837 36.906 164.086 35.5673 162.664 33.7163C161.276 31.8653 160.582 29.4359 160.582 26.428C160.582 23.4201 161.276 20.9907 162.664 19.1397C164.086 17.2556 165.837 15.917 167.92 15.1237C170.035 14.2973 172.151 13.8842 174.266 13.8842C176.514 13.8842 178.679 14.2973 180.761 15.1237C182.844 15.917 184.562 17.2556 185.918 19.1397C187.306 20.9907 188 23.4201 188 26.428C188 29.4359 187.306 31.8819 185.918 33.7659C184.562 35.6169 182.844 36.9391 180.761 37.7324C178.712 38.5256 176.547 38.9223 174.266 38.9223ZM174.266 35.1542C175.225 35.1542 175.952 34.741 176.448 33.9147C176.944 33.0883 177.274 32.0802 177.439 30.8903C177.605 29.6673 177.687 28.1799 177.687 26.428C177.687 24.3787 177.621 22.7921 177.489 21.6683C177.357 20.5445 177.026 19.6024 176.497 18.8422C176.001 18.0489 175.258 17.6523 174.266 17.6523C173.341 17.6523 172.613 18.0489 172.085 18.8422C171.589 19.6024 171.258 20.594 171.093 21.817C170.928 23.04 170.845 24.577 170.845 26.428C170.845 28.2129 170.928 29.7168 171.093 30.9398C171.258 32.1298 171.589 33.1379 172.085 33.9642C172.613 34.7575 173.341 35.1542 174.266 35.1542Z" fill="#5F27E3"/>
<path d="M140.828 8.87644C140.299 8.64506 139.886 8.34758 139.589 7.98399C139.324 7.58735 139.192 7.15765 139.192 6.6949C139.192 6.23215 139.324 5.81898 139.589 5.45539C139.886 5.05875 140.299 4.77779 140.828 4.61252L149.455 1.93518C150.017 1.73686 150.529 1.6377 150.992 1.6377C151.719 1.6377 152.281 1.86907 152.678 2.33182C153.108 2.76152 153.322 3.35648 153.322 4.11672V33.2204C153.322 33.6171 153.405 33.898 153.57 34.0633C153.736 34.1955 154 34.2616 154.364 34.2616H153.422V36.0961L150.843 34.2616H154.76C155.487 34.2616 156.033 34.4765 156.396 34.9062C156.793 35.3359 156.991 35.8317 156.991 36.3936C156.991 37.0547 156.76 37.6166 156.297 38.0793C155.834 38.5421 155.19 38.7404 154.364 38.6743L150.843 38.4264H146.133L142.563 38.6743C141.737 38.7404 141.093 38.5421 140.63 38.0793C140.2 37.6166 139.985 37.0547 139.985 36.3936C139.985 35.8317 140.184 35.3359 140.58 34.9062C140.977 34.4765 141.522 34.2616 142.216 34.2616H146.133L143.555 36.0961V34.2616H142.563C142.96 34.2616 143.241 34.1955 143.406 34.0633C143.572 33.898 143.654 33.6171 143.654 33.2204V9.91763L140.828 8.87644Z" fill="#5F27E3"/>
<path d="M119.902 8.87644C119.373 8.64506 118.96 8.34758 118.662 7.98399C118.398 7.58735 118.265 7.15765 118.265 6.6949C118.265 6.23215 118.398 5.81898 118.662 5.45539C118.96 5.05875 119.373 4.77779 119.902 4.61252L128.529 1.93518C129.091 1.73686 129.603 1.6377 130.066 1.6377C130.793 1.6377 131.355 1.86907 131.751 2.33182C132.181 2.76152 132.396 3.35648 132.396 4.11672V33.2204C132.396 33.6171 132.479 33.898 132.644 34.0633C132.809 34.1955 133.074 34.2616 133.437 34.2616H132.495V36.0961L129.917 34.2616H133.834C134.561 34.2616 135.106 34.4765 135.47 34.9062C135.867 35.3359 136.065 35.8317 136.065 36.3936C136.065 37.0547 135.833 37.6166 135.371 38.0793C134.908 38.5421 134.263 38.7404 133.437 38.6743L129.917 38.4264H125.207L121.637 38.6743C120.811 38.7404 120.166 38.5421 119.703 38.0793C119.274 37.6166 119.059 37.0547 119.059 36.3936C119.059 35.8317 119.257 35.3359 119.654 34.9062C120.05 34.4765 120.596 34.2616 121.29 34.2616H125.207L122.629 36.0961V34.2616H121.637C122.034 34.2616 122.315 34.1955 122.48 34.0633C122.645 33.898 122.728 33.6171 122.728 33.2204V9.91763L119.902 8.87644Z" fill="#5F27E3"/>
<path d="M99.5519 22.1641H105.006C105.634 22.1641 106.096 22.0154 106.394 21.7179C106.691 21.4204 106.84 21.0072 106.84 20.4784C106.84 20.0817 106.741 19.7016 106.543 19.338C106.344 18.9414 106.063 18.6274 105.7 18.396C105.336 18.1646 104.923 18.0489 104.46 18.0489C103.436 18.0489 102.593 18.5943 101.932 19.6851C101.304 20.7428 100.99 22.3294 100.99 24.4448C100.99 26.0975 101.254 27.4692 101.783 28.56C102.312 29.6508 102.989 30.444 103.816 30.9398C104.675 31.4357 105.634 31.6836 106.691 31.6836C107.617 31.6836 108.509 31.4687 109.369 31.039C110.261 30.5763 111.038 29.9482 111.699 29.155C112.162 28.56 112.691 28.2625 113.286 28.2625C113.914 28.2625 114.409 28.5269 114.773 29.0558C115.17 29.5846 115.269 30.2457 115.071 31.039C114.74 32.4603 114.046 33.7659 112.988 34.9559C111.93 36.1458 110.559 37.1043 108.873 37.8315C107.22 38.5257 105.353 38.8727 103.27 38.8727C101.254 38.8727 99.3205 38.4926 97.4695 37.7324C95.6185 36.9391 94.0815 35.6335 92.8585 33.8155C91.6355 31.9976 91.024 29.6342 91.024 26.7255C91.024 23.8498 91.6686 21.4535 92.9577 19.5363C94.2798 17.6192 95.916 16.2145 97.8661 15.322C99.8494 14.3965 101.866 13.9338 103.915 13.9338C106.328 13.9338 108.377 14.3965 110.063 15.322C111.782 16.2145 113.054 17.3879 113.881 18.8422C114.74 20.2966 115.137 21.8336 115.071 23.4532C115.038 24.2465 114.839 24.8249 114.476 25.1885C114.112 25.5521 113.583 25.7339 112.889 25.7339L99.4527 25.6843L99.5519 22.1641Z" fill="#5F27E3"/>
<path d="M58.6841 6.44711L59.1799 5.60424L62.006 8.08327H57.3454C56.6182 8.08327 56.0563 7.86842 55.6597 7.43872C55.263 6.97597 55.0647 6.44711 55.0647 5.85215C55.0647 5.12497 55.2961 4.51348 55.7588 4.01767C56.2216 3.52187 56.8661 3.30702 57.6925 3.37313L62.006 3.72019H68.6002L72.8641 3.37313C73.7235 3.30702 74.3845 3.52187 74.8473 4.01767C75.31 4.51348 75.5414 5.12497 75.5414 5.85215C75.5414 6.44711 75.3266 6.97597 74.8969 7.43872C74.5002 7.86842 73.9548 8.08327 73.2607 8.08327H68.6002L71.6246 5.60424L71.8229 8.08327H72.8641C72.3022 8.08327 71.9551 8.19895 71.8229 8.43033C71.6907 8.62865 71.7733 8.99224 72.0708 9.5211L78.9129 21.3212L76.186 21.4204L83.2264 9.91774C83.4908 9.45499 83.6396 9.0914 83.6726 8.82697C83.7387 8.56254 83.6726 8.38075 83.4743 8.28159C83.309 8.14937 83.0115 8.08327 82.5818 8.08327H82.9289L83.4743 6.39753L84.2676 5.60424L87.0937 8.08327H82.4331C81.7059 8.08327 81.144 7.86842 80.7474 7.43872C80.3507 6.97597 80.1524 6.44711 80.1524 5.85215C80.1524 5.12497 80.3838 4.51348 80.8465 4.01767C81.3093 3.52187 81.9538 3.30702 82.7802 3.37313L87.0937 3.72019H86.9449L91.2584 3.37313C92.1178 3.30702 92.7789 3.52187 93.2416 4.01767C93.7044 4.51348 93.9358 5.12497 93.9358 5.85215C93.9358 6.44711 93.7209 6.97597 93.2912 7.43872C92.8946 7.86842 92.3492 8.08327 91.6551 8.08327H86.9449L90.2668 5.60424L90.8618 8.08327H91.6551C91.1262 8.08327 90.6634 8.23201 90.2668 8.52949C89.8702 8.79392 89.457 9.2732 89.0273 9.96732L78.3675 27.1222L80.2516 22.9574V32.4273C80.2516 32.9892 80.3672 33.4023 80.5986 33.6668C80.8631 33.8981 81.2762 34.0138 81.8381 34.0138H80.7474L80.549 35.6004L80.2516 36.5424L77.4255 34.0138H82.086C82.8132 34.0138 83.3751 34.2452 83.7718 34.708C84.1684 35.1707 84.3667 35.6996 84.3667 36.2945C84.3667 37.0217 84.1354 37.6332 83.6726 38.129C83.2099 38.6248 82.5653 38.8397 81.739 38.7736L77.4255 38.4265H71.9716L67.6581 38.7736C66.8318 38.8397 66.1872 38.6248 65.7245 38.129C65.2617 37.6332 65.0304 37.0217 65.0304 36.2945C65.0304 35.6996 65.2287 35.1707 65.6253 34.708C66.022 34.2452 66.5839 34.0138 67.3111 34.0138H71.9716L68.8481 36.5424L68.5506 34.0138H67.5094C68.1374 34.0138 68.5671 33.8981 68.7985 33.6668C69.0299 33.4023 69.1455 32.9892 69.1455 32.4273V22.8087L69.5918 26.9734L59.5765 9.5211C59.279 8.99224 58.965 8.62865 58.6345 8.43033C58.304 8.19895 57.8908 8.08327 57.395 8.08327H58.337L58.6841 6.44711Z" fill="#5F27E3"/>
</svg>
